<?xml version="1.0" encoding="UTF-8"?>
<svg xmlns="http://www.w3.org/2000/svg" width="500" height="430" viewBox="0 0 500 430" role="img" aria-labelledby="title">
  <title id="title">InkGroove — tintero verde</title>
  <desc>Tintero de época y nombre en Selectric Century Medium 8, convertidos en trazados vectoriales. Fondo transparente.</desc>
  <g id="tintero"><path id="bote" fill="#12352d" fill-rule="evenodd" d="M342.00,413.98 C335.68,412.91 320.38,410.42 308.00,408.45 C269.06,402.25 243.10,398.07 224.50,395.00 C198.94,390.78 145.36,382.25 126.50,379.40 C97.16,374.98 93.76,373.80 86.03,365.42 C77.61,356.29 78.14,362.04 77.92,277.33 C77.73,202.32 77.73,202.18 79.88,197.84 C81.94,193.67 90.19,185.93 102.44,176.68 C107.36,172.97 150.40,151.14 164.50,145.20 C168.35,143.58 176.22,140.23 182.00,137.75 C187.78,135.28 193.29,132.98 194.25,132.66 C195.69,132.17 195.99,130.87 195.96,125.28 C195.92,118.77 195.80,118.42 192.75,116.50 C186.07,112.29 183.11,104.15 186.50,99.30 C187.32,98.13 189.57,96.19 191.49,95.01 L194.98,92.85 L191.95,90.31 C186.38,85.62 186.00,83.87 186.01,63.30 C186.01,52.96 186.47,42.86 187.03,40.85 C190.49,28.37 216.35,18.68 256.15,14.95 C275.42,13.14 319.01,14.22 335.50,16.91 C363.54,21.48 377.50,27.02 384.41,36.32 C386.35,38.94 386.52,40.66 386.81,60.22 C387.15,83.64 386.83,85.35 381.24,89.95 L377.76,92.82 L380.79,94.39 C390.51,99.42 390.16,109.78 380.03,116.75 L376.03,119.50 L376.27,130.48 L376.50,141.45 L386.00,143.16 C444.12,153.60 459.38,156.63 462.83,158.41 C468.62,161.41 480.72,172.79 482.90,177.30 C484.97,181.58 485.00,182.53 485.00,256.12 L485.00,330.61 L482.42,335.78 C481.01,338.62 478.19,342.55 476.17,344.52 C474.15,346.48 458.32,357.95 441.00,370.01 C388.61,406.46 380.52,411.77 374.85,413.45 C366.27,416.00 354.91,416.18 342.00,413.98 Z M356.55,398.22 C357.89,396.65 358.07,387.39 358.02,322.18 C357.98,275.38 358.33,247.26 358.95,246.10 C359.66,244.76 361.61,244.08 366.21,243.58 C374.19,242.71 379.72,241.26 380.61,239.82 C381.12,238.99 378.18,238.84 369.63,239.26 L357.94,239.84 L354.47,232.94 C350.77,225.60 350.24,222.82 352.25,221.30 C352.94,220.78 357.05,219.60 361.39,218.69 C368.64,217.17 371.84,215.51 401.39,197.84 C443.68,172.57 450.73,167.99 448.89,166.96 C447.39,166.12 403.23,159.60 392.20,158.60 C388.25,158.24 386.12,158.38 386.49,158.99 C387.30,160.29 400.26,164.20 414.97,167.57 C421.71,169.12 426.90,170.80 426.71,171.37 C426.52,171.94 420.10,176.11 412.43,180.64 C398.82,188.69 393.76,191.81 375.60,203.35 C366.33,209.24 362.29,210.26 359.87,207.34 C357.02,203.87 333.87,183.00 332.88,183.00 C331.64,183.00 336.36,191.57 343.65,202.57 C346.59,207.01 349.00,211.36 349.00,212.24 C349.00,214.76 342.81,216.28 335.70,215.52 C332.29,215.16 320.05,213.79 308.50,212.49 C296.95,211.18 280.30,209.38 271.50,208.47 C262.70,207.57 247.40,205.75 237.50,204.42 C227.60,203.10 208.70,200.65 195.50,198.99 C169.92,195.76 127.08,188.40 125.62,186.99 C125.13,186.52 124.99,185.46 125.31,184.63 C125.63,183.81 140.95,175.65 159.36,166.50 C188.44,152.06 195.34,148.01 193.69,146.35 C193.10,145.76 151.48,162.68 133.47,170.82 C115.64,178.88 111.00,181.90 111.00,185.42 C111.00,186.90 108.35,189.55 102.13,194.29 C97.25,198.01 92.63,201.83 91.87,202.78 C90.69,204.23 90.56,215.85 91.04,276.75 C91.60,347.02 91.67,349.08 93.62,351.69 C94.72,353.17 96.16,354.55 96.81,354.77 C97.72,355.07 98.00,338.84 98.00,285.27 C98.00,230.91 98.28,215.01 99.25,213.72 C100.16,212.52 102.39,211.99 107.50,211.78 L114.50,211.50 L109.25,209.67 C102.67,207.37 102.46,205.40 108.28,200.63 C116.33,194.03 110.78,193.85 180.50,203.02 C197.00,205.19 221.75,208.32 235.50,209.98 C249.25,211.64 265.45,213.66 271.50,214.48 C277.55,215.29 292.71,217.32 305.19,218.99 C317.67,220.65 329.58,222.57 331.65,223.26 C334.10,224.06 336.42,225.90 338.26,228.50 C339.82,230.70 343.55,235.87 346.55,240.00 L352.00,247.49 L352.00,316.60 C352.00,363.64 351.65,386.69 350.92,388.81 C349.54,392.75 347.94,393.22 335.86,393.26 C330.43,393.28 326.00,393.65 326.00,394.08 C326.00,394.51 328.36,395.34 331.25,395.93 C334.14,396.52 339.43,397.63 343.00,398.40 C351.96,400.33 354.77,400.29 356.55,398.22 Z M375.36,398.06 C379.46,397.11 384.33,393.13 386.47,389.00 C387.49,387.04 387.68,377.86 387.38,346.50 C386.82,288.32 385.90,254.00 384.89,254.00 C384.40,254.00 384.00,257.71 383.99,262.25 C383.99,266.79 383.53,282.43 382.97,297.00 C382.41,311.57 381.56,337.68 381.08,355.00 C380.59,372.32 379.90,387.22 379.54,388.11 C379.19,389.00 375.77,391.44 371.95,393.53 C368.13,395.62 365.00,397.71 365.00,398.17 C365.00,399.25 370.46,399.19 375.36,398.06 Z M297.90,389.57 C296.91,388.58 266.92,382.87 195.00,369.99 C185.93,368.36 164.65,364.54 147.71,361.50 C115.83,355.77 115.35,355.75 111.67,359.82 C109.92,361.75 109.92,361.84 111.68,362.34 C115.45,363.41 125.02,365.10 141.05,367.51 C150.15,368.87 160.05,370.42 163.05,370.94 C166.05,371.45 176.15,373.03 185.50,374.45 C194.85,375.86 212.62,378.55 225.00,380.43 C237.38,382.31 254.47,384.78 263.00,385.92 C271.52,387.06 281.20,388.39 284.50,388.88 C291.16,389.86 298.57,390.24 297.90,389.57 Z M430.80,353.64 C447.69,342.44 462.96,332.52 464.75,331.61 C466.54,330.70 468.00,329.77 468.00,329.56 C468.00,327.80 466.28,325.68 463.82,324.41 C460.96,322.93 460.71,323.01 453.69,327.63 C437.96,337.99 420.57,351.54 409.65,361.96 C403.03,368.27 398.20,374.00 399.49,374.00 C399.83,374.00 413.92,364.84 430.80,353.64 Z M325.38,361.25 C327.58,357.02 331.35,353.98 336.14,352.57 L340.50,351.28 L340.76,306.09 L341.02,260.91 L337.26,259.34 C331.20,256.81 328.37,254.32 326.11,249.52 C324.94,247.03 323.65,244.99 323.24,244.98 C320.77,244.91 255.86,236.86 210.00,230.93 C196.60,229.20 142.66,221.85 131.75,220.28 C128.79,219.85 128.00,220.07 128.00,221.29 C128.00,225.06 119.63,232.00 115.08,232.00 C113.10,232.00 113.06,232.66 112.78,270.25 C112.63,291.29 112.65,311.51 112.83,315.19 C113.16,321.72 113.24,321.89 116.18,322.54 C120.08,323.40 126.61,329.93 127.46,333.83 C128.26,337.48 127.73,337.34 150.90,339.98 C160.47,341.08 176.22,343.09 185.90,344.46 C224.31,349.88 288.31,359.20 302.50,361.43 C322.82,364.63 323.62,364.63 325.38,361.25 Z M471.68,259.85 C471.32,230.61 470.79,206.46 470.51,206.18 C470.23,205.90 469.80,205.87 469.55,206.12 C468.26,207.41 465.54,248.82 464.40,284.56 L463.72,305.62 L466.97,309.31 C468.75,311.34 470.68,313.00 471.27,313.00 C472.01,313.00 472.13,297.03 471.68,259.85 Z M381.60,231.61 C380.02,227.49 373.57,220.09 372.49,221.17 C372.20,221.47 373.35,224.36 375.05,227.61 C380.58,238.14 385.16,240.94 381.60,231.61 Z M404.21,234.47 C418.30,228.27 459.13,202.32 469.25,193.12 C472.69,190.00 472.81,186.24 469.63,181.23 C466.78,176.72 458.45,170.46 457.46,172.07 C456.69,173.31 466.67,183.00 468.71,183.00 C469.42,183.00 470.00,183.37 470.00,183.81 C470.00,185.69 463.08,190.70 438.00,207.02 C410.43,224.95 393.00,236.78 393.00,237.55 C393.00,238.75 396.91,237.68 404.21,234.47 Z M315.75,204.92 C314.23,204.03 297.55,199.98 268.50,193.44 C261.58,191.88 260.90,191.55 263.50,190.98 C265.15,190.63 273.48,190.54 282.00,190.79 C292.78,191.11 297.20,190.93 296.50,190.20 C295.55,189.20 278.43,186.45 258.00,184.00 C232.01,180.89 211.89,176.08 202.53,170.74 C200.35,169.49 197.87,167.13 197.03,165.48 C196.19,163.84 195.42,162.35 195.33,162.16 C195.04,161.60 145.00,186.37 145.00,187.08 C145.00,187.68 160.20,189.95 178.00,192.01 C182.12,192.49 197.20,194.24 211.50,195.89 C225.80,197.55 251.00,200.27 267.50,201.94 C284.00,203.61 298.85,205.14 300.50,205.34 C302.15,205.54 306.65,205.75 310.50,205.82 C315.70,205.91 317.05,205.68 315.75,204.92 Z M326.12,178.07 C329.21,177.56 333.71,176.55 336.12,175.83 L340.50,174.51 L335.23,174.20 C332.33,174.03 325.80,174.40 320.73,175.02 C315.65,175.64 309.37,176.40 306.77,176.70 C304.17,177.00 302.28,177.64 302.58,178.13 C303.29,179.28 318.98,179.24 326.12,178.07 Z M248.50,151.10 L248.50,136.70 L240.00,134.98 C235.32,134.03 231.16,133.45 230.75,133.69 C230.34,133.92 230.00,139.87 230.00,146.90 C230.00,161.68 230.17,162.00 239.04,164.42 C248.88,167.10 248.50,167.63 248.50,151.10 Z M365.94,163.53 C371.85,160.54 372.50,159.13 369.24,156.44 C366.35,154.06 365.15,148.52 365.06,137.17 C365.03,133.13 364.66,130.00 364.25,130.20 C358.19,133.15 358.27,133.04 357.65,139.35 C357.31,142.73 357.47,148.43 358.00,152.00 C358.53,155.57 358.97,158.84 358.98,159.25 C358.99,159.66 356.86,161.34 354.25,162.98 L349.50,165.96 L355.28,165.98 C359.48,165.99 362.40,165.32 365.94,163.53 Z M209.18,155.75 C211.25,152.85 211.49,151.42 211.43,142.50 C211.38,135.11 210.92,131.65 209.66,129.25 C207.11,124.40 206.01,125.29 205.95,132.25 C205.90,138.66 204.69,149.27 203.43,154.36 C202.94,156.33 203.16,157.48 204.11,158.09 C206.25,159.44 206.69,159.24 209.18,155.75 Z M279.00,132.11 C283.40,131.38 283.33,131.34 275.50,130.59 C258.07,128.91 235.09,126.02 227.50,124.55 C218.17,122.74 218.00,122.73 218.00,123.87 C218.00,125.99 237.92,131.16 250.50,132.30 C257.89,132.97 274.46,132.86 279.00,132.11 Z M357.24,127.84 C362.30,126.74 367.00,123.70 367.00,121.54 C367.00,120.17 363.28,120.89 352.00,124.47 C349.52,125.26 345.57,126.39 343.22,127.00 C340.85,127.60 339.21,128.54 339.55,129.09 C340.23,130.18 349.54,129.53 357.24,127.84 Z M304.00,117.97 C313.11,116.83 320.49,115.16 319.74,114.41 C319.48,114.15 307.40,113.50 292.89,112.96 C278.37,112.43 260.65,111.35 253.50,110.57 C240.27,109.13 216.29,105.30 214.82,104.39 C214.37,104.11 214.00,104.42 214.00,105.08 C214.00,105.93 212.55,106.11 209.00,105.69 C200.44,104.67 203.84,108.77 214.65,112.49 C233.01,118.81 276.06,121.45 304.00,117.97 Z M364.42,106.73 C373.73,101.43 368.49,99.97 353.19,103.61 C338.77,107.03 336.83,108.39 347.25,107.77 C351.51,107.51 355.00,107.68 355.00,108.15 C355.00,109.78 360.53,108.95 364.42,106.73 Z M269.15,96.25 C269.36,94.74 269.37,87.54 269.16,80.25 C268.80,67.21 268.76,67.00 266.51,67.00 C265.25,67.00 263.94,67.71 263.61,68.58 C263.27,69.45 263.00,75.94 263.00,83.00 C263.00,90.06 263.27,96.55 263.61,97.42 C263.94,98.29 265.24,99.00 266.49,99.00 C268.22,99.00 268.86,98.34 269.15,96.25 Z M280.98,84.25 C280.97,69.78 280.33,66.06 278.11,67.43 C276.90,68.18 276.48,97.15 277.67,98.33 C278.03,98.70 278.93,99.00 279.67,99.00 C280.72,99.00 281.00,95.88 280.98,84.25 Z M256.00,82.00 L256.00,66.00 L253.62,66.00 C251.76,66.00 251.11,66.68 250.62,69.12 C249.79,73.31 249.82,96.49 250.67,97.33 C251.03,97.70 252.38,98.00 253.67,98.00 L256.00,98.00 L256.00,82.00 Z M244.78,81.22 C245.04,66.86 244.95,66.04 243.01,65.00 C241.88,64.40 240.52,64.18 239.98,64.51 C239.41,64.87 239.00,71.54 239.00,80.49 C239.00,94.28 239.18,95.90 240.75,96.30 C241.71,96.55 242.95,96.66 243.50,96.55 C244.10,96.42 244.61,90.26 244.78,81.22 Z M234.00,79.12 L234.00,63.23 L231.52,62.76 C230.16,62.50 228.81,62.52 228.52,62.81 C227.75,63.58 227.89,93.55 228.67,94.33 C229.03,94.70 230.38,95.00 231.67,95.00 L234.00,95.00 L234.00,79.12 Z M223.00,77.00 L223.00,61.00 L220.50,61.00 L218.00,61.00 L218.00,75.95 C218.00,89.13 218.21,91.02 219.75,91.92 C220.71,92.48 221.84,92.95 222.25,92.97 C222.66,92.99 223.00,85.80 223.00,77.00 Z M213.78,74.25 C213.50,58.77 213.46,58.49 211.25,58.18 L209.00,57.86 L209.00,73.35 C209.00,84.80 209.33,88.96 210.25,89.34 C213.95,90.83 214.06,90.39 213.78,74.25 Z M363.00,83.09 C363.00,80.46 362.68,74.75 362.29,70.40 C361.60,62.74 361.56,62.64 360.86,67.00 C359.95,72.73 359.80,87.46 360.64,88.31 C362.05,89.72 363.00,87.63 363.00,83.09 Z M203.56,56.30 C203.29,55.58 202.37,55.00 201.53,55.00 C200.23,55.00 200.00,57.14 200.00,69.45 C200.00,82.17 200.21,84.02 201.75,84.88 C203.38,85.79 203.52,84.85 203.78,71.73 C203.93,63.95 203.83,57.01 203.56,56.30 Z M374.00,67.23 C374.00,56.96 373.71,53.93 372.75,54.25 C371.84,54.55 371.44,58.71 371.26,69.58 C371.05,82.95 371.18,84.30 372.51,82.56 C373.66,81.06 374.00,77.53 374.00,67.23 Z M336.00,51.70 C357.74,47.72 369.95,43.22 370.79,38.87 C371.21,36.69 361.29,32.48 352.50,31.09 C341.75,29.40 319.97,27.02 315.50,27.04 C309.49,27.07 313.11,28.55 322.50,29.90 C333.31,31.45 340.81,33.52 343.10,35.59 C345.71,37.95 345.49,38.73 342.02,39.49 C340.39,39.85 339.15,40.60 339.27,41.16 C339.59,42.57 327.92,45.52 315.70,47.14 C298.16,49.45 263.99,48.43 253.50,45.28 C251.68,44.73 251.73,44.61 254.06,43.97 C255.47,43.59 261.23,42.69 266.85,41.97 C277.17,40.65 278.86,39.05 269.94,39.02 C265.70,39.00 260.79,36.88 262.06,35.60 C263.26,34.41 282.24,30.00 286.26,29.98 C288.59,29.98 291.10,29.59 291.83,29.13 C294.21,27.62 273.05,26.88 258.50,27.96 C236.18,29.61 226.16,30.94 216.02,33.60 C197.82,38.36 197.37,41.85 214.28,46.97 C223.14,49.65 239.91,52.82 251.00,53.91 C256.23,54.43 274.45,54.69 291.50,54.51 C319.25,54.20 323.92,53.91 336.00,51.70 Z M290.50,351.41 C277.85,349.56 260.30,346.92 251.50,345.54 C236.43,343.17 208.88,339.21 157.00,331.97 C144.62,330.24 134.38,328.53 134.23,328.16 C132.37,323.55 128.72,319.11 125.22,317.18 L121.00,314.85 L121.00,277.05 L121.00,239.25 L124.06,238.64 C127.01,238.05 131.40,234.34 133.50,230.67 C134.56,228.82 134.63,228.82 170.50,234.01 C180.18,235.41 226.60,241.26 262.00,245.55 C313.70,251.81 318.32,252.54 319.48,254.63 C320.79,257.02 327.99,264.40 330.17,265.59 C331.68,266.41 331.87,270.24 332.10,305.45 L332.37,344.39 L329.90,345.05 C325.94,346.11 323.03,348.27 320.86,351.75 C318.40,355.70 320.05,355.72 290.50,351.41 Z M317.79,346.07 C318.98,344.46 321.54,342.57 323.48,341.87 L327.00,340.60 L327.00,304.93 L327.00,269.27 L322.93,266.57 C320.69,265.09 318.00,262.41 316.94,260.62 L315.02,257.37 L300.76,255.68 C292.92,254.75 279.75,253.14 271.50,252.09 C263.25,251.05 248.18,249.22 238.00,248.02 C220.49,245.97 174.38,239.97 148.77,236.42 L137.05,234.79 L134.41,237.93 C132.95,239.66 130.47,241.74 128.88,242.56 L126.00,244.05 L126.04,277.78 L126.08,311.50 L130.09,314.28 C132.29,315.80 135.00,318.57 136.10,320.44 C137.84,323.39 138.76,323.91 143.30,324.50 C158.15,326.44 291.49,345.61 306.50,347.97 C314.82,349.27 315.51,349.16 317.79,346.07 Z M245.50,313.05 C236.64,310.72 229.83,307.70 217.81,300.75 C203.80,292.67 198.30,290.82 186.50,290.27 C173.37,289.65 165.65,291.48 151.26,298.59 C139.55,304.38 136.70,304.91 136.20,301.38 C135.55,296.84 146.57,287.50 160.31,280.95 C172.51,275.13 179.43,273.62 194.00,273.59 C210.60,273.56 218.77,275.94 235.25,285.62 C238.41,287.48 243.59,290.52 246.75,292.37 C258.38,299.18 263.78,300.47 280.50,300.44 C296.23,300.41 299.14,299.77 312.56,293.41 C322.46,288.71 312.33,299.48 301.49,305.17 C292.61,309.84 285.08,312.59 277.57,313.94 C268.44,315.57 253.51,315.16 245.50,313.05 Z"/><path id="mancha" fill="#12352d" fill-rule="evenodd" d="M81.84,392.87 C76.42,390.88 77.46,386.79 83.83,385.04 C90.05,383.32 97.88,386.54 96.46,390.24 C95.18,393.58 87.54,394.96 81.84,392.87 Z M27.00,388.05 C8.62,384.24 6.80,372.42 23.82,367.31 C31.45,365.02 50.27,365.04 58.18,367.36 C67.97,370.22 72.02,375.36 68.97,381.06 C67.69,383.44 63.04,385.90 56.50,387.64 C51.24,389.05 33.03,389.29 27.00,388.05 Z"/></g>
</svg>
